<?xml version="1.0" encoding="UTF-8"?>
<svg id="Layer_7" data-name="Layer 7" xmlns="http://www.w3.org/2000/svg" viewBox="0 0 3504.91 554.39">
  <defs>
    <style>
      .cls-1 {
        fill: #ed1c24;
      }

      .cls-1, .cls-2 {
        stroke-width: 0px;
      }

      .cls-2 {
        fill: #f7f7f8;
      }
    </style>
  </defs>
  <g>
    <path class="cls-2" d="M2614.24,210.08c-2.87-2.33-5.74-4.06-8.61-5.18-2.87-1.12-5.65-1.68-8.34-1.68-3.41,0-6.19.81-8.34,2.42-2.15,1.61-3.23,3.72-3.23,6.32,0,1.8.54,3.28,1.62,4.44,1.08,1.17,2.49,2.18,4.24,3.03,1.75.85,3.72,1.59,5.92,2.22,2.2.63,4.38,1.3,6.53,2.02,8.61,2.87,14.91,6.71,18.91,11.5,3.99,4.8,5.99,11.06,5.99,18.77,0,5.2-.87,9.91-2.62,14.13-1.75,4.22-4.31,7.83-7.67,10.83-3.36,3.01-7.49,5.34-12.38,7-4.89,1.66-10.43,2.49-16.62,2.49-12.83,0-24.71-3.81-35.66-11.44l11.3-21.26c3.95,3.5,7.85,6.1,11.71,7.8,3.86,1.71,7.67,2.56,11.44,2.56,4.31,0,7.51-.99,9.62-2.96,2.11-1.97,3.16-4.22,3.16-6.73,0-1.52-.27-2.85-.81-3.97-.54-1.12-1.44-2.15-2.69-3.1-1.26-.94-2.89-1.82-4.91-2.62-2.02-.81-4.46-1.7-7.33-2.69-3.41-1.08-6.75-2.26-10.02-3.57-3.28-1.3-6.19-3.03-8.75-5.18-2.56-2.15-4.62-4.86-6.19-8.14-1.57-3.27-2.35-7.42-2.35-12.45s.83-9.57,2.49-13.66c1.66-4.08,3.99-7.58,7-10.5,3-2.91,6.68-5.18,11.03-6.79,4.35-1.61,9.22-2.42,14.6-2.42,5.02,0,10.27.7,15.74,2.09,5.47,1.39,10.72,3.43,15.74,6.12l-10.5,20.59Z"/>
    <path class="cls-2" d="M2699.01,267.94h-37.68l-6.05,17.63h-28.12l38.62-101.46h28.8l38.62,101.46h-28.12l-6.06-17.63ZM2650.71,173.48c0-6.64,1.53-11.91,4.58-15.81,3.05-3.9,6.95-5.85,11.71-5.85,1.88,0,3.99.29,6.32.88,2.33.58,4.64,1.21,6.93,1.88,2.29.67,4.39,1.28,6.33,1.82,1.93.54,3.47.81,4.64.81,2.87,0,4.8-1.84,5.79-5.52h13.32c-.9,8.07-2.85,13.73-5.85,16.95-3.01,3.23-7.06,4.84-12.18,4.84-2.51,0-4.98-.29-7.4-.88-2.42-.58-4.71-1.21-6.86-1.88-2.15-.67-4.08-1.3-5.79-1.88-1.71-.58-3.14-.87-4.3-.87-.99,0-1.84.36-2.56,1.08-.72.72-1.39,2.2-2.02,4.44h-12.65ZM2692.02,247.89l-11.84-33.77-11.84,33.77h23.68Z"/>
    <path class="cls-2" d="M2727,234.84c0-7.54,1.39-14.55,4.17-21.06,2.78-6.5,6.64-12.18,11.57-17.02,4.93-4.84,10.83-8.63,17.69-11.37,6.86-2.74,14.42-4.1,22.67-4.1s15.7,1.37,22.61,4.1c6.91,2.74,12.85,6.53,17.83,11.37s8.86,10.52,11.64,17.02c2.78,6.5,4.17,13.52,4.17,21.06s-1.39,14.56-4.17,21.06c-2.78,6.5-6.66,12.18-11.64,17.02-4.98,4.84-10.92,8.63-17.83,11.37s-14.44,4.1-22.61,4.1-15.81-1.37-22.67-4.1c-6.86-2.74-12.76-6.53-17.69-11.37-4.94-4.84-8.79-10.52-11.57-17.02-2.78-6.5-4.17-13.52-4.17-21.06ZM2754.59,234.84c0,4.04.76,7.76,2.29,11.17,1.52,3.41,3.59,6.37,6.19,8.88,2.6,2.51,5.63,4.46,9.08,5.85,3.45,1.39,7.11,2.09,10.97,2.09s7.51-.69,10.97-2.09c3.45-1.39,6.5-3.34,9.15-5.85,2.64-2.51,4.73-5.47,6.26-8.88,1.53-3.41,2.29-7.13,2.29-11.17s-.76-7.76-2.29-11.17c-1.53-3.41-3.61-6.37-6.26-8.88-2.65-2.51-5.7-4.46-9.15-5.85-3.46-1.39-7.11-2.09-10.97-2.09s-7.51.7-10.97,2.09c-3.45,1.39-6.48,3.34-9.08,5.85-2.6,2.51-4.67,5.47-6.19,8.88-1.53,3.41-2.29,7.13-2.29,11.17Z"/>
  </g>
  <g>
    <path class="cls-2" d="M2906.85,285.57h-26.37v-101.46h41.98c11.39,0,20.12,2.96,26.17,8.88,6.05,5.92,9.08,14.26,9.08,25.03s-3.03,19.11-9.08,25.03c-6.05,5.92-14.78,8.88-26.17,8.88h-15.61v33.64ZM2906.85,230.67h8.75c9.69,0,14.53-4.22,14.53-12.65s-4.84-12.65-14.53-12.65h-8.75v25.3Z"/>
    <path class="cls-2" d="M3017.87,267.94h-37.68l-6.05,17.63h-28.12l38.62-101.46h28.79l38.62,101.46h-28.12l-6.05-17.63ZM3010.87,247.89l-11.84-33.77-11.84,33.77h23.68Z"/>
    <path class="cls-2" d="M3076.8,184.11v55.17c0,2.96.11,5.99.34,9.08.22,3.1.9,5.9,2.02,8.41,1.12,2.51,2.89,4.55,5.32,6.12,2.42,1.57,5.83,2.35,10.23,2.35s7.78-.78,10.16-2.35c2.38-1.57,4.15-3.61,5.32-6.12,1.16-2.51,1.86-5.31,2.09-8.41.22-3.09.34-6.12.34-9.08v-55.17h26.24v58.8c0,15.79-3.61,27.32-10.83,34.58-7.22,7.27-18.32,10.9-33.3,10.9s-26.11-3.63-33.37-10.9c-7.27-7.27-10.9-18.79-10.9-34.58v-58.8h26.38Z"/>
    <path class="cls-2" d="M3176.24,184.11v79.12h31.62v22.34h-58v-101.46h26.37Z"/>
    <path class="cls-2" d="M3208.67,234.84c0-7.54,1.39-14.55,4.17-21.06,2.78-6.5,6.64-12.18,11.57-17.02s10.83-8.63,17.7-11.37c6.86-2.74,14.42-4.1,22.67-4.1s15.7,1.37,22.61,4.1c6.91,2.74,12.85,6.53,17.83,11.37,4.98,4.84,8.86,10.52,11.64,17.02,2.78,6.5,4.17,13.52,4.17,21.06s-1.39,14.56-4.17,21.06c-2.78,6.5-6.66,12.18-11.64,17.02-4.98,4.84-10.92,8.63-17.83,11.37-6.91,2.74-14.44,4.1-22.61,4.1s-15.81-1.37-22.67-4.1c-6.86-2.74-12.76-6.53-17.7-11.37-4.93-4.84-8.79-10.52-11.57-17.02-2.78-6.5-4.17-13.52-4.17-21.06ZM3236.25,234.84c0,4.04.76,7.76,2.29,11.17,1.53,3.41,3.59,6.37,6.19,8.88,2.6,2.51,5.63,4.46,9.08,5.85,3.45,1.39,7.11,2.09,10.97,2.09s7.51-.69,10.97-2.09c3.45-1.39,6.5-3.34,9.15-5.85,2.65-2.51,4.73-5.47,6.26-8.88,1.52-3.41,2.29-7.13,2.29-11.17s-.76-7.76-2.29-11.17c-1.53-3.41-3.61-6.37-6.26-8.88-2.65-2.51-5.7-4.46-9.15-5.85-3.46-1.39-7.11-2.09-10.97-2.09s-7.52.7-10.97,2.09c-3.46,1.39-6.48,3.34-9.08,5.85-2.6,2.51-4.66,5.47-6.19,8.88-1.53,3.41-2.29,7.13-2.29,11.17Z"/>
  </g>
  <g>
    <path class="cls-2" d="M2578.89,344.33h23.19c0,8.9-1.82,15.24-7.21,20.23-4.72,4.38-10.11,5.66-15.84,5.66-8.09,0-13.62-2.97-17.26-6.67-3.37-3.37-6.47-8.83-6.47-16.25s2.83-13.01,6.74-16.86c3.71-3.71,9.51-6.61,17.46-6.61,4.18,0,8.7.94,12.14,3.03,3.51,2.16,6.4,5.73,8.02,9.24l-11.12,4.58c-.81-2.09-2.09-3.57-3.24-4.52-1.96-1.62-4.05-2.22-6.27-2.22-2.76,0-5.6,1.01-7.69,3.1-2.63,2.63-3.91,6.81-3.91,10.32,0,4.11,1.48,7.48,3.57,9.71,2.16,2.29,4.79,3.44,8.23,3.44,2.02,0,4.38-.34,6.47-2.09,1.08-.88,2.36-2.49,2.76-4.99h-9.57v-9.1Z"/>
    <path class="cls-2" d="M2653.73,364.15c-4.58,4.38-11.06,6.67-17.73,6.67s-13.15-2.29-17.73-6.67c-4.79-4.58-7.08-10.85-7.08-16.79s2.29-12.34,7.08-16.86c4.58-4.38,11.06-6.67,17.73-6.67s13.15,2.29,17.73,6.67c4.79,4.52,7.08,10.85,7.08,16.86s-2.29,12.2-7.08,16.79ZM2626.9,338.73c-2.43,2.36-3.57,5.66-3.57,8.83,0,3.98,1.89,6.74,3.57,8.36,2.16,2.09,5.19,3.57,9.1,3.57s6.94-1.42,9.03-3.51c2.09-2.09,3.64-5.19,3.64-8.63s-1.55-6.61-3.64-8.63c-2.49-2.36-5.93-3.57-9.03-3.57s-6.67,1.15-9.1,3.57Z"/>
    <path class="cls-2" d="M2677.33,324.84l10.79,27.37,10.92-27.37h12.68l-19.15,44.97h-9.1l-18.88-44.97h12.74Z"/>
    <path class="cls-2" d="M2745.97,334.75h-13.89v7.48h13.15v9.91h-13.15v7.75h13.89v9.91h-25.55v-44.97h25.55v9.91Z"/>
    <path class="cls-2" d="M2775.23,324.84c3.37,0,7.69.54,10.99,3.98,2.56,2.63,3.84,6.54,3.84,10.11,0,3.84-1.35,7.21-3.57,9.37-1.75,1.69-4.11,2.7-6.2,3.1l14.09,18.41h-14.49l-11.19-17.26v17.26h-11.66v-44.97h18.2ZM2768.69,345h2.23c1.75,0,4.25-.47,5.66-1.82.88-.88,1.48-2.36,1.48-3.78s-.54-2.83-1.55-3.78c-1.08-1.08-3.03-1.75-5.6-1.75h-2.23v11.12Z"/>
    <path class="cls-2" d="M2802.2,369.81v-44.97h11.66l21.51,27.51v-27.51h11.66v44.97h-11.66l-21.51-27.51v27.51h-11.66Z"/>
    <path class="cls-2" d="M2898.07,364.15c-4.58,4.38-11.06,6.67-17.73,6.67s-13.15-2.29-17.73-6.67c-4.79-4.58-7.08-10.85-7.08-16.79s2.29-12.34,7.08-16.86c4.58-4.38,11.06-6.67,17.73-6.67s13.15,2.29,17.73,6.67c4.79,4.52,7.08,10.85,7.08,16.86s-2.29,12.2-7.08,16.79ZM2871.24,338.73c-2.43,2.36-3.57,5.66-3.57,8.83,0,3.98,1.89,6.74,3.57,8.36,2.16,2.09,5.19,3.57,9.1,3.57s6.94-1.42,9.03-3.51c2.09-2.09,3.64-5.19,3.64-8.63s-1.55-6.61-3.64-8.63c-2.49-2.36-5.93-3.57-9.03-3.57s-6.67,1.15-9.1,3.57Z"/>
    <path class="cls-2" d="M2935.7,369.81v-44.97h15.3c4.52,0,12.07.61,17.87,6.2,5.26,5.06,6.27,11.53,6.27,16.38,0,5.93-1.48,11.19-5.87,15.57-3.57,3.57-9.57,6.81-17.26,6.81h-16.32ZM2947.36,359.9h2.36c2.83,0,6.81-.27,9.84-3.24,1.48-1.42,3.44-4.25,3.44-9.24,0-4.18-1.28-7.75-3.51-9.84-2.76-2.56-6.4-2.83-9.3-2.83h-2.83v25.15Z"/>
    <path class="cls-2" d="M3026.85,364.15c-4.58,4.38-11.06,6.67-17.73,6.67s-13.15-2.29-17.73-6.67c-4.79-4.58-7.08-10.85-7.08-16.79s2.29-12.34,7.08-16.86c4.58-4.38,11.06-6.67,17.73-6.67s13.15,2.29,17.73,6.67c4.79,4.52,7.08,10.85,7.08,16.86s-2.29,12.2-7.08,16.79ZM3000.02,338.73c-2.43,2.36-3.57,5.66-3.57,8.83,0,3.98,1.89,6.74,3.57,8.36,2.16,2.09,5.19,3.57,9.1,3.57s6.94-1.42,9.03-3.51c2.09-2.09,3.64-5.19,3.64-8.63s-1.55-6.61-3.64-8.63c-2.49-2.36-5.93-3.57-9.03-3.57s-6.67,1.15-9.1,3.57Z"/>
    <path class="cls-2" d="M3085.31,334.75h-13.89v7.48h13.15v9.91h-13.15v7.75h13.89v9.91h-25.55v-44.97h25.55v9.91Z"/>
    <path class="cls-2" d="M3100.28,356.33c2.49,2.36,6.27,4.58,10.32,4.58,2.36,0,3.78-.74,4.52-1.55.67-.67,1.15-1.69,1.15-2.83,0-.88-.34-1.89-1.28-2.7-1.15-1.01-2.9-1.48-5.8-2.36l-3.03-.94c-1.89-.61-4.65-1.62-6.47-3.64-2.29-2.49-2.56-5.66-2.56-7.96,0-5.53,2.16-8.9,4.11-10.85,2.29-2.29,6.07-4.25,11.53-4.25,4.45,0,9.64,1.42,13.89,3.64l-4.65,9.1c-3.51-2.76-6.14-3.03-7.69-3.03-1.15,0-2.7.27-3.84,1.35-.67.67-1.15,1.42-1.15,2.43,0,.81.13,1.42.61,2.02.34.4,1.15,1.21,3.91,2.02l3.57,1.08c2.83.88,5.8,1.89,8.16,4.45,2.29,2.43,2.9,4.92,2.9,8.02,0,4.11-1.01,8.09-4.25,11.33-3.84,3.84-8.49,4.58-13.28,4.58-2.83,0-5.53-.27-8.83-1.48-.74-.27-3.57-1.35-6.81-3.57l4.99-9.44Z"/>
    <path class="cls-2" d="M3154.76,334.75v35.06h-11.66v-35.06h-9.57v-9.91h30.81v9.91h-9.57Z"/>
    <path class="cls-2" d="M3197.5,362.26h-16.32l-3.03,7.55h-12.34l17.26-44.97h12.74l16.92,44.97h-12.47l-2.76-7.55ZM3194.4,353.36l-5.06-14.56-4.92,14.56h9.98Z"/>
    <path class="cls-2" d="M3222.59,369.81v-44.97h15.3c4.52,0,12.07.61,17.87,6.2,5.26,5.06,6.27,11.53,6.27,16.38,0,5.93-1.48,11.19-5.87,15.57-3.57,3.57-9.57,6.81-17.26,6.81h-16.32ZM3234.25,359.9h2.36c2.83,0,6.81-.27,9.84-3.24,1.48-1.42,3.44-4.25,3.44-9.24,0-4.18-1.28-7.75-3.51-9.84-2.76-2.56-6.4-2.83-9.3-2.83h-2.83v25.15Z"/>
    <path class="cls-2" d="M3313.94,364.15c-4.58,4.38-11.06,6.67-17.73,6.67s-13.15-2.29-17.73-6.67c-4.79-4.58-7.08-10.85-7.08-16.79s2.29-12.34,7.08-16.86c4.58-4.38,11.06-6.67,17.73-6.67s13.15,2.29,17.73,6.67c4.79,4.52,7.08,10.85,7.08,16.86s-2.29,12.2-7.08,16.79ZM3287.11,338.73c-2.43,2.36-3.57,5.66-3.57,8.83,0,3.98,1.89,6.74,3.57,8.36,2.16,2.09,5.19,3.57,9.1,3.57s6.94-1.42,9.03-3.51c2.09-2.09,3.64-5.19,3.64-8.63s-1.55-6.61-3.64-8.63c-2.49-2.36-5.93-3.57-9.03-3.57s-6.67,1.15-9.1,3.57Z"/>
  </g>
  <g>
    <path class="cls-1" d="M2455.24,187.13h-114.93c-12.69,0-22.99,10.29-22.99,22.99h0v160.9l91.94-45.97h45.97c25.39,0,45.97-20.58,45.97-45.97v-45.97c0-25.39-20.58-45.97-45.97-45.97Z"/>
    <path class="cls-2" d="M2248.36,187.13h-91.94c-25.39,0-45.97,20.58-45.97,45.97h0c0,25.39,20.58,45.97,45.97,45.97h-45.97v91.94h137.92c25.39,0,45.97-20.58,45.97-45.97h0c0-25.39-20.58-45.97-45.97-45.97h45.97v-91.94h-45.97Z"/>
  </g>
  <g>
    <path class="cls-2" d="M195.54,298.98h26.51c4.69,0,9.1.95,13.21,2.83,4.11,1.89,7.71,4.4,10.79,7.54,3.08,3.14,5.5,6.8,7.27,10.97,1.77,4.18,2.65,8.55,2.65,13.12s-.87,8.85-2.61,13.03c-1.74,4.18-4.15,7.85-7.22,11.02-3.08,3.17-6.67,5.7-10.79,7.59-4.11,1.89-8.55,2.83-13.3,2.83h-26.51v-68.93ZM213.46,352.74h4.11c3.11,0,5.88-.49,8.32-1.46,2.44-.97,4.49-2.32,6.17-4.02,1.67-1.71,2.96-3.73,3.84-6.08.88-2.35,1.33-4.92,1.33-7.73s-.46-5.3-1.37-7.68-2.21-4.42-3.89-6.13c-1.68-1.71-3.73-3.05-6.17-4.02-2.44-.97-5.18-1.46-8.23-1.46h-4.11v38.58Z"/>
    <path class="cls-2" d="M280.75,347.26c0,7.13,3.35,10.7,10.06,10.7,3.6,0,6.31-1.46,8.14-4.39h16c-3.23,10.73-11.31,16.09-24.23,16.09-3.96,0-7.59-.59-10.88-1.78s-6.11-2.88-8.46-5.07c-2.35-2.19-4.16-4.81-5.44-7.86-1.28-3.05-1.92-6.46-1.92-10.24s.61-7.42,1.83-10.56c1.22-3.14,2.96-5.81,5.21-8,2.25-2.19,4.98-3.89,8.18-5.07,3.2-1.19,6.81-1.78,10.83-1.78s7.53.59,10.7,1.78c3.17,1.19,5.85,2.91,8.04,5.17,2.19,2.26,3.87,5.01,5.03,8.27,1.16,3.26,1.74,6.93,1.74,11.02v1.74h-34.83ZM300.13,337.66c-.55-2.32-1.68-4.17-3.38-5.58-1.71-1.4-3.78-2.1-6.22-2.1-2.56,0-4.65.67-6.26,2.01-1.62,1.34-2.64,3.23-3.06,5.67h18.92Z"/>
    <path class="cls-2" d="M356.08,333.09c-3.05-1.58-6.03-2.38-8.96-2.38-1.52,0-2.76.31-3.7.91-.95.61-1.42,1.43-1.42,2.47,0,.55.08.99.23,1.33s.49.66,1.01.96c.52.31,1.28.58,2.29.82,1.01.24,2.33.55,3.98.91,4.57.92,7.98,2.55,10.24,4.89,2.25,2.35,3.38,5.35,3.38,9,0,2.74-.55,5.21-1.65,7.41-1.1,2.19-2.62,4.04-4.57,5.53-1.95,1.49-4.3,2.65-7.04,3.47-2.74.82-5.76,1.23-9.05,1.23-6.34,0-12.59-1.8-18.74-5.39l6.03-11.7c4.63,3.17,9.02,4.75,13.17,4.75,1.52,0,2.77-.33,3.75-1.01.97-.67,1.46-1.52,1.46-2.56,0-.61-.08-1.11-.23-1.51-.15-.4-.47-.76-.96-1.1-.49-.33-1.2-.64-2.15-.91-.95-.27-2.18-.56-3.7-.87-5.12-1.04-8.7-2.57-10.74-4.62-2.04-2.04-3.06-4.86-3.06-8.46,0-2.62.49-4.98,1.46-7.08.97-2.1,2.38-3.89,4.21-5.35s4.04-2.59,6.63-3.38c2.59-.79,5.47-1.19,8.64-1.19,5.18,0,10.21,1.01,15.08,3.02l-5.58,10.79Z"/>
    <path class="cls-2" d="M386.44,347.26c0,7.13,3.35,10.7,10.06,10.7,3.6,0,6.31-1.46,8.14-4.39h16c-3.23,10.73-11.31,16.09-24.23,16.09-3.96,0-7.59-.59-10.88-1.78s-6.11-2.88-8.46-5.07c-2.35-2.19-4.16-4.81-5.44-7.86-1.28-3.05-1.92-6.46-1.92-10.24s.61-7.42,1.83-10.56c1.22-3.14,2.96-5.81,5.21-8,2.25-2.19,4.98-3.89,8.18-5.07,3.2-1.19,6.81-1.78,10.83-1.78s7.53.59,10.7,1.78c3.17,1.19,5.85,2.91,8.04,5.17,2.19,2.26,3.87,5.01,5.03,8.27,1.16,3.26,1.74,6.93,1.74,11.02v1.74h-34.83ZM405.82,337.66c-.55-2.32-1.68-4.17-3.38-5.58-1.71-1.4-3.78-2.1-6.22-2.1-2.56,0-4.65.67-6.26,2.01-1.62,1.34-2.64,3.23-3.06,5.67h18.92Z"/>
    <path class="cls-2" d="M430.68,321.02h16.55v5.94c2.25-2.74,4.54-4.59,6.86-5.53,2.32-.94,5.03-1.42,8.14-1.42,3.29,0,6.11.53,8.46,1.6,2.34,1.07,4.34,2.58,5.99,4.53,1.34,1.59,2.25,3.35,2.74,5.3.49,1.95.73,4.18.73,6.67v29.8h-16.55v-23.68c0-2.32-.17-4.19-.5-5.62-.34-1.43-.93-2.57-1.78-3.43-.73-.73-1.55-1.25-2.47-1.55-.91-.3-1.89-.46-2.93-.46-2.8,0-4.95.84-6.45,2.51-1.49,1.68-2.24,4.07-2.24,7.18v25.05h-16.55v-46.9Z"/>
    <path class="cls-2" d="M502.73,321.02l11.15,24.04,11.34-24.04h18.47l-24.41,46.9h-11.06l-24.14-46.9h18.65Z"/>
    <path class="cls-2" d="M545.15,344.06c0-3.47.7-6.72,2.1-9.74,1.4-3.02,3.35-5.64,5.85-7.86,2.5-2.22,5.47-3.98,8.91-5.26,3.44-1.28,7.21-1.92,11.29-1.92s7.75.63,11.2,1.87c3.44,1.25,6.43,2.99,8.96,5.21,2.53,2.23,4.49,4.88,5.9,7.95,1.4,3.08,2.1,6.48,2.1,10.19s-.72,7.12-2.15,10.19c-1.43,3.08-3.4,5.73-5.9,7.95-2.5,2.23-5.5,3.95-9.01,5.17-3.5,1.22-7.3,1.83-11.38,1.83s-7.74-.61-11.15-1.83c-3.41-1.22-6.35-2.96-8.82-5.21-2.47-2.25-4.4-4.95-5.81-8.09-1.4-3.14-2.1-6.63-2.1-10.47ZM562.61,344.24c0,1.58.29,3.03.87,4.34.58,1.31,1.34,2.45,2.29,3.43.94.98,2.07,1.74,3.38,2.29,1.31.55,2.7.82,4.16.82s2.85-.27,4.16-.82c1.31-.55,2.44-1.31,3.38-2.29.94-.97,1.71-2.12,2.29-3.43.58-1.31.87-2.73.87-4.25s-.29-2.85-.87-4.16c-.58-1.31-1.34-2.45-2.29-3.43-.95-.97-2.07-1.74-3.38-2.29-1.31-.55-2.7-.82-4.16-.82s-2.85.27-4.16.82c-1.31.55-2.44,1.31-3.38,2.29-.95.98-1.71,2.1-2.29,3.38-.58,1.28-.87,2.65-.87,4.11Z"/>
    <path class="cls-2" d="M627.52,292.04v75.88h-16.55v-75.88h16.55Z"/>
    <path class="cls-2" d="M652.75,321.02l11.15,24.04,11.34-24.04h18.47l-24.41,46.9h-11.06l-24.14-46.9h18.65Z"/>
    <path class="cls-2" d="M698.28,303.01c0-1.28.24-2.48.73-3.61.49-1.13,1.16-2.12,2.01-2.97.85-.85,1.84-1.52,2.97-2.01,1.13-.49,2.33-.73,3.61-.73s2.48.24,3.61.73c1.13.49,2.12,1.16,2.97,2.01.85.85,1.52,1.84,2.01,2.97.49,1.13.73,2.33.73,3.61s-.24,2.48-.73,3.61c-.49,1.13-1.16,2.12-2.01,2.97s-1.84,1.52-2.97,2.01c-1.13.49-2.33.73-3.61.73s-2.48-.24-3.61-.73c-1.13-.49-2.12-1.16-2.97-2.01-.85-.85-1.52-1.84-2.01-2.97-.49-1.13-.73-2.33-.73-3.61ZM715.93,321.02v46.9h-16.55v-46.9h16.55Z"/>
    <path class="cls-2" d="M727.26,321.02h16.55v5.76c4.51-4.33,9.57-6.49,15.18-6.49,6.95,0,12.25,2.92,15.91,8.78,3.72-5.91,9.02-8.87,15.91-8.87,2.19,0,4.27.32,6.22.96,1.95.64,3.63,1.65,5.03,3.02,1.4,1.37,2.51,3.15,3.34,5.35.82,2.19,1.23,4.85,1.23,7.95v30.44h-16.55v-23.13c0-2.38-.17-4.33-.5-5.85-.33-1.52-.82-2.71-1.46-3.57-.64-.85-1.39-1.43-2.24-1.74-.85-.3-1.77-.46-2.74-.46-5.3,0-7.95,3.87-7.95,11.61v23.13h-16.55v-23.13c0-2.38-.15-4.34-.46-5.9-.31-1.55-.75-2.79-1.33-3.7-.58-.92-1.33-1.54-2.24-1.88-.91-.33-1.98-.5-3.2-.5-1.04,0-2.01.15-2.93.46-.91.31-1.72.9-2.42,1.78-.7.88-1.25,2.1-1.65,3.66-.4,1.55-.59,3.58-.59,6.08v23.13h-16.55v-46.9Z"/>
    <path class="cls-2" d="M832.86,347.26c0,7.13,3.35,10.7,10.06,10.7,3.6,0,6.31-1.46,8.14-4.39h16c-3.23,10.73-11.31,16.09-24.23,16.09-3.96,0-7.59-.59-10.88-1.78s-6.11-2.88-8.46-5.07c-2.35-2.19-4.16-4.81-5.44-7.86-1.28-3.05-1.92-6.46-1.92-10.24s.61-7.42,1.83-10.56c1.22-3.14,2.96-5.81,5.21-8,2.25-2.19,4.98-3.89,8.18-5.07,3.2-1.19,6.81-1.78,10.83-1.78s7.53.59,10.7,1.78c3.17,1.19,5.85,2.91,8.04,5.17,2.19,2.26,3.87,5.01,5.03,8.27,1.16,3.26,1.74,6.93,1.74,11.02v1.74h-34.83ZM852.24,337.66c-.55-2.32-1.68-4.17-3.38-5.58-1.71-1.4-3.78-2.1-6.22-2.1-2.56,0-4.65.67-6.26,2.01-1.62,1.34-2.64,3.23-3.06,5.67h18.92Z"/>
    <path class="cls-2" d="M877.11,321.02h16.55v5.94c2.25-2.74,4.54-4.59,6.86-5.53,2.32-.94,5.03-1.42,8.14-1.42,3.29,0,6.11.53,8.46,1.6,2.34,1.07,4.34,2.58,5.99,4.53,1.34,1.59,2.25,3.35,2.74,5.3.49,1.95.73,4.18.73,6.67v29.8h-16.55v-23.68c0-2.32-.17-4.19-.5-5.62-.34-1.43-.93-2.57-1.78-3.43-.73-.73-1.55-1.25-2.47-1.55-.91-.3-1.89-.46-2.93-.46-2.8,0-4.95.84-6.45,2.51-1.49,1.68-2.24,4.07-2.24,7.18v25.05h-16.55v-46.9Z"/>
    <path class="cls-2" d="M956.28,334.82v33.1h-16.55v-33.1h-5.49v-13.8h5.49v-14.08h16.55v14.08h9.42v13.8h-9.42Z"/>
    <path class="cls-2" d="M970.9,344.06c0-3.47.7-6.72,2.1-9.74,1.4-3.02,3.35-5.64,5.85-7.86,2.5-2.22,5.47-3.98,8.91-5.26,3.44-1.28,7.21-1.92,11.29-1.92s7.75.63,11.2,1.87c3.44,1.25,6.43,2.99,8.96,5.21,2.53,2.23,4.49,4.88,5.9,7.95,1.4,3.08,2.1,6.48,2.1,10.19s-.72,7.12-2.15,10.19c-1.43,3.08-3.4,5.73-5.9,7.95-2.5,2.23-5.5,3.95-9.01,5.17-3.5,1.22-7.3,1.83-11.38,1.83s-7.74-.61-11.15-1.83c-3.41-1.22-6.35-2.96-8.82-5.21-2.47-2.25-4.4-4.95-5.81-8.09-1.4-3.14-2.1-6.63-2.1-10.47ZM988.37,344.24c0,1.58.29,3.03.87,4.34.58,1.31,1.34,2.45,2.29,3.43.94.98,2.07,1.74,3.38,2.29,1.31.55,2.7.82,4.16.82s2.85-.27,4.16-.82c1.31-.55,2.44-1.31,3.38-2.29.94-.97,1.71-2.12,2.29-3.43.58-1.31.87-2.73.87-4.25s-.29-2.85-.87-4.16c-.58-1.31-1.34-2.45-2.29-3.43-.95-.97-2.07-1.74-3.38-2.29-1.31-.55-2.7-.82-4.16-.82s-2.85.27-4.16.82c-1.31.55-2.44,1.31-3.38,2.29-.95.98-1.71,2.1-2.29,3.38-.58,1.28-.87,2.65-.87,4.11Z"/>
    <path class="cls-2" d="M1087.29,298.98v37.48c0,2.01.08,4.07.23,6.17.15,2.1.61,4.01,1.37,5.71.76,1.71,1.97,3.09,3.61,4.16,1.65,1.07,3.96,1.6,6.95,1.6s5.29-.53,6.9-1.6c1.61-1.07,2.82-2.45,3.61-4.16.79-1.71,1.26-3.61,1.42-5.71.15-2.1.23-4.16.23-6.17v-37.48h17.83v39.95c0,10.73-2.45,18.56-7.36,23.5-4.91,4.94-12.45,7.41-22.63,7.41s-17.74-2.47-22.67-7.41c-4.94-4.94-7.41-12.77-7.41-23.5v-39.95h17.92Z"/>
    <path class="cls-2" d="M1143.33,321.02h16.55v7.68c1.77-2.8,3.93-4.95,6.49-6.45,2.56-1.49,5.55-2.24,8.96-2.24h1.42c.52,0,1.11.06,1.78.18v15.82c-2.19-1.1-4.57-1.65-7.13-1.65-3.84,0-6.72,1.14-8.64,3.43-1.92,2.29-2.88,5.62-2.88,10.01v20.11h-16.55v-46.9Z"/>
    <path class="cls-2" d="M1202.39,292.04v33.64c3.9-4.08,8.78-6.12,14.63-6.12,3.47,0,6.66.66,9.55,1.97,2.89,1.31,5.36,3.08,7.41,5.3,2.04,2.23,3.64,4.85,4.8,7.86,1.16,3.02,1.74,6.23,1.74,9.64s-.59,6.74-1.78,9.78-2.85,5.7-4.98,7.95c-2.13,2.26-4.65,4.04-7.54,5.35-2.9,1.31-6.02,1.97-9.37,1.97-6.1,0-10.91-2.22-14.45-6.67v5.21h-16.55v-75.88h16.55ZM1223.23,344.61c0-1.46-.27-2.85-.82-4.16s-1.31-2.45-2.29-3.43c-.98-.97-2.1-1.75-3.38-2.33-1.28-.58-2.68-.87-4.21-.87s-2.83.27-4.11.82c-1.28.55-2.39,1.31-3.34,2.29-.95.98-1.71,2.12-2.29,3.43-.58,1.31-.87,2.7-.87,4.16s.27,2.83.82,4.11c.55,1.28,1.31,2.39,2.29,3.34.97.95,2.12,1.71,3.43,2.29,1.31.58,2.7.87,4.16.87s2.83-.27,4.11-.82c1.28-.55,2.39-1.31,3.34-2.29.94-.97,1.71-2.1,2.29-3.38.58-1.28.87-2.62.87-4.02Z"/>
    <path class="cls-2" d="M1286.13,321.02h16.64v46.9h-16.64v-5.21c-3.54,4.45-8.32,6.67-14.35,6.67-3.41,0-6.55-.63-9.42-1.87-2.87-1.25-5.36-3-7.5-5.26-2.13-2.25-3.79-4.91-4.98-7.95-1.19-3.05-1.78-6.37-1.78-9.97,0-3.35.58-6.54,1.74-9.55,1.16-3.02,2.77-5.65,4.85-7.91,2.07-2.25,4.54-4.04,7.41-5.35,2.86-1.31,6.03-1.97,9.51-1.97,5.85,0,10.7,2.04,14.54,6.12v-4.66ZM1265.29,344.33c0,1.52.27,2.94.82,4.25s1.29,2.45,2.24,3.43c.94.98,2.07,1.74,3.38,2.29s2.73.82,4.25.82,2.85-.27,4.16-.82c1.31-.55,2.44-1.31,3.38-2.29.94-.97,1.71-2.1,2.29-3.38.58-1.28.87-2.65.87-4.11s-.29-2.85-.87-4.16c-.58-1.31-1.34-2.45-2.29-3.43-.95-.97-2.07-1.74-3.38-2.29-1.31-.55-2.7-.82-4.16-.82s-2.94.27-4.25.82-2.44,1.31-3.38,2.29c-.95.98-1.69,2.09-2.24,3.34-.55,1.25-.82,2.61-.82,4.07Z"/>
    <path class="cls-2" d="M1314.01,321.02h16.55v5.94c2.25-2.74,4.54-4.59,6.86-5.53,2.32-.94,5.03-1.42,8.14-1.42,3.29,0,6.11.53,8.46,1.6,2.34,1.07,4.34,2.58,5.99,4.53,1.34,1.59,2.25,3.35,2.74,5.3.49,1.95.73,4.18.73,6.67v29.8h-16.55v-23.68c0-2.32-.17-4.19-.5-5.62-.34-1.43-.93-2.57-1.78-3.43-.73-.73-1.55-1.25-2.47-1.55-.91-.3-1.89-.46-2.93-.46-2.8,0-4.95.84-6.45,2.51-1.49,1.68-2.24,4.07-2.24,7.18v25.05h-16.55v-46.9Z"/>
    <path class="cls-2" d="M1372.89,344.06c0-3.47.7-6.72,2.1-9.74,1.4-3.02,3.35-5.64,5.85-7.86,2.5-2.22,5.47-3.98,8.91-5.26,3.44-1.28,7.21-1.92,11.29-1.92s7.75.63,11.2,1.87c3.44,1.25,6.43,2.99,8.96,5.21,2.53,2.23,4.49,4.88,5.9,7.95,1.4,3.08,2.1,6.48,2.1,10.19s-.72,7.12-2.15,10.19c-1.43,3.08-3.4,5.73-5.9,7.95-2.5,2.23-5.5,3.95-9.01,5.17-3.5,1.22-7.3,1.83-11.38,1.83s-7.74-.61-11.15-1.83c-3.41-1.22-6.35-2.96-8.82-5.21-2.47-2.25-4.4-4.95-5.81-8.09-1.4-3.14-2.1-6.63-2.1-10.47ZM1390.35,344.24c0,1.58.29,3.03.87,4.34.58,1.31,1.34,2.45,2.29,3.43.94.98,2.07,1.74,3.38,2.29,1.31.55,2.7.82,4.16.82s2.85-.27,4.16-.82c1.31-.55,2.44-1.31,3.38-2.29.94-.97,1.71-2.12,2.29-3.43.58-1.31.87-2.73.87-4.25s-.29-2.85-.87-4.16c-.58-1.31-1.34-2.45-2.29-3.43-.95-.97-2.07-1.74-3.38-2.29-1.31-.55-2.7-.82-4.16-.82s-2.85.27-4.16.82c-1.31.55-2.44,1.31-3.38,2.29-.95.98-1.71,2.1-2.29,3.38-.58,1.28-.87,2.65-.87,4.11Z"/>
    <path class="cls-2" d="M1484.7,347.26c0,7.13,3.35,10.7,10.06,10.7,3.6,0,6.31-1.46,8.14-4.39h16c-3.23,10.73-11.31,16.09-24.23,16.09-3.96,0-7.59-.59-10.88-1.78s-6.11-2.88-8.46-5.07c-2.35-2.19-4.16-4.81-5.44-7.86-1.28-3.05-1.92-6.46-1.92-10.24s.61-7.42,1.83-10.56c1.22-3.14,2.96-5.81,5.21-8,2.25-2.19,4.98-3.89,8.18-5.07,3.2-1.19,6.81-1.78,10.83-1.78s7.53.59,10.7,1.78c3.17,1.19,5.85,2.91,8.04,5.17,2.19,2.26,3.87,5.01,5.03,8.27,1.16,3.26,1.74,6.93,1.74,11.02v1.74h-34.83ZM1504.08,337.66c-.55-2.32-1.68-4.17-3.38-5.58-1.71-1.4-3.78-2.1-6.22-2.1-2.56,0-4.65.67-6.26,2.01-1.62,1.34-2.64,3.23-3.06,5.67h18.92Z"/>
    <path class="cls-2" d="M1579.51,325.59h25.87v-26.6h17.92v68.93h-17.92v-28.43h-25.87v28.43h-17.92v-68.93h17.92v26.6Z"/>
    <path class="cls-2" d="M1672.39,321.02h16.64v46.9h-16.64v-5.21c-3.54,4.45-8.32,6.67-14.35,6.67-3.41,0-6.55-.63-9.42-1.87-2.87-1.25-5.36-3-7.5-5.26-2.13-2.25-3.79-4.91-4.98-7.95-1.19-3.05-1.78-6.37-1.78-9.97,0-3.35.58-6.54,1.74-9.55,1.16-3.02,2.77-5.65,4.85-7.91,2.07-2.25,4.54-4.04,7.41-5.35,2.86-1.31,6.03-1.97,9.51-1.97,5.85,0,10.7,2.04,14.54,6.12v-4.66ZM1651.55,344.33c0,1.52.27,2.94.82,4.25s1.29,2.45,2.24,3.43c.94.98,2.07,1.74,3.38,2.29s2.73.82,4.25.82,2.85-.27,4.16-.82c1.31-.55,2.44-1.31,3.38-2.29.94-.97,1.71-2.1,2.29-3.38.58-1.28.87-2.65.87-4.11s-.29-2.85-.87-4.16c-.58-1.31-1.34-2.45-2.29-3.43-.95-.97-2.07-1.74-3.38-2.29-1.31-.55-2.7-.82-4.16-.82s-2.94.27-4.25.82-2.44,1.31-3.38,2.29c-.95.98-1.69,2.09-2.24,3.34-.55,1.25-.82,2.61-.82,4.07Z"/>
    <path class="cls-2" d="M1716.83,292.04v33.64c3.9-4.08,8.78-6.12,14.63-6.12,3.47,0,6.66.66,9.55,1.97,2.89,1.31,5.36,3.08,7.41,5.3,2.04,2.23,3.64,4.85,4.8,7.86,1.16,3.02,1.74,6.23,1.74,9.64s-.59,6.74-1.78,9.78-2.85,5.7-4.98,7.95c-2.13,2.26-4.65,4.04-7.54,5.35-2.9,1.31-6.02,1.97-9.37,1.97-6.1,0-10.91-2.22-14.45-6.67v5.21h-16.55v-75.88h16.55ZM1737.67,344.61c0-1.46-.27-2.85-.82-4.16s-1.31-2.45-2.29-3.43c-.98-.97-2.1-1.75-3.38-2.33-1.28-.58-2.68-.87-4.21-.87s-2.83.27-4.11.82c-1.28.55-2.39,1.31-3.34,2.29-.95.98-1.71,2.12-2.29,3.43-.58,1.31-.87,2.7-.87,4.16s.27,2.83.82,4.11c.55,1.28,1.31,2.39,2.29,3.34.97.95,2.12,1.71,3.43,2.29,1.31.58,2.7.87,4.16.87s2.83-.27,4.11-.82c1.28-.55,2.39-1.31,3.34-2.29.94-.97,1.71-2.1,2.29-3.38.58-1.28.87-2.62.87-4.02Z"/>
    <path class="cls-2" d="M1763.27,303.01c0-1.28.24-2.48.73-3.61.49-1.13,1.16-2.12,2.01-2.97.85-.85,1.84-1.52,2.97-2.01,1.13-.49,2.33-.73,3.61-.73s2.48.24,3.61.73c1.13.49,2.12,1.16,2.97,2.01.85.85,1.52,1.84,2.01,2.97.49,1.13.73,2.33.73,3.61s-.24,2.48-.73,3.61c-.49,1.13-1.16,2.12-2.01,2.97s-1.84,1.52-2.97,2.01c-1.13.49-2.33.73-3.61.73s-2.48-.24-3.61-.73c-1.13-.49-2.12-1.16-2.97-2.01-.85-.85-1.52-1.84-2.01-2.97-.49-1.13-.73-2.33-.73-3.61ZM1780.91,321.02v46.9h-16.55v-46.9h16.55Z"/>
    <path class="cls-2" d="M1810.72,334.82v33.1h-16.55v-33.1h-5.49v-13.8h5.49v-14.08h16.55v14.08h9.42v13.8h-9.42Z"/>
    <path class="cls-2" d="M1863.47,321.02h16.64v46.9h-16.64v-5.21c-3.54,4.45-8.32,6.67-14.35,6.67-3.41,0-6.55-.63-9.42-1.87-2.87-1.25-5.36-3-7.5-5.26-2.13-2.25-3.79-4.91-4.98-7.95-1.19-3.05-1.78-6.37-1.78-9.97,0-3.35.58-6.54,1.74-9.55,1.16-3.02,2.77-5.65,4.85-7.91,2.07-2.25,4.54-4.04,7.41-5.35,2.86-1.31,6.03-1.97,9.51-1.97,5.85,0,10.7,2.04,14.54,6.12v-4.66ZM1842.62,344.33c0,1.52.27,2.94.82,4.25s1.29,2.45,2.24,3.43c.94.98,2.07,1.74,3.38,2.29s2.73.82,4.25.82,2.85-.27,4.16-.82c1.31-.55,2.44-1.31,3.38-2.29.94-.97,1.71-2.1,2.29-3.38.58-1.28.87-2.65.87-4.11s-.29-2.85-.87-4.16c-.58-1.31-1.34-2.45-2.29-3.43-.95-.97-2.07-1.74-3.38-2.29-1.31-.55-2.7-.82-4.16-.82s-2.94.27-4.25.82-2.44,1.31-3.38,2.29c-.95.98-1.69,2.09-2.24,3.34-.55,1.25-.82,2.61-.82,4.07Z"/>
    <path class="cls-2" d="M1926.73,336.19c-2.87-1.95-5.76-2.92-8.69-2.92-1.59,0-3.06.27-4.43.82-1.37.55-2.58,1.33-3.61,2.33-1.04,1.01-1.84,2.19-2.42,3.57-.58,1.37-.87,2.91-.87,4.62s.29,3.15.87,4.53c.58,1.37,1.37,2.56,2.38,3.57,1.01,1.01,2.21,1.78,3.61,2.33,1.4.55,2.89.82,4.48.82,3.11,0,6-1.07,8.69-3.2v14.08c-4.08,1.77-7.95,2.65-11.61,2.65-3.41,0-6.66-.58-9.74-1.74-3.08-1.16-5.79-2.82-8.14-4.98-2.35-2.16-4.22-4.75-5.62-7.77-1.4-3.02-2.1-6.38-2.1-10.1s.67-7.12,2.01-10.19c1.34-3.08,3.17-5.73,5.49-7.95,2.32-2.22,5.07-3.96,8.27-5.21,3.2-1.25,6.63-1.87,10.29-1.87,4.02,0,7.74.85,11.15,2.56v14.08ZM1921.7,379.26l-14.08,13.35-7.5-4.75,12.07-14.72,9.51,6.13Z"/>
    <path class="cls-2" d="M1972.35,321.02h16.64v46.9h-16.64v-5.21c-3.54,4.45-8.32,6.67-14.35,6.67-3.41,0-6.55-.63-9.42-1.87-2.87-1.25-5.36-3-7.5-5.26-2.13-2.25-3.79-4.91-4.98-7.95-1.19-3.05-1.78-6.37-1.78-9.97,0-3.35.58-6.54,1.74-9.55,1.16-3.02,2.77-5.65,4.85-7.91,2.07-2.25,4.54-4.04,7.41-5.35,2.86-1.31,6.03-1.97,9.51-1.97,5.85,0,10.7,2.04,14.54,6.12v-4.66ZM1945.56,313.7v-1.01c0-1.89.24-3.66.73-5.3.49-1.65,1.19-3.06,2.1-4.25s1.98-2.13,3.2-2.83c1.22-.7,2.56-1.05,4.02-1.05.67,0,1.78.2,3.34.59,1.55.4,3.49,1.02,5.81,1.87,1.4.49,2.57.87,3.52,1.14.94.27,1.75.41,2.42.41,1.1,0,1.84-.27,2.24-.82.4-.55.81-1.61,1.23-3.2h8.14c-.55,5.18-1.65,8.88-3.29,11.11-1.65,2.23-4.02,3.34-7.13,3.34-1.28,0-2.67-.18-4.16-.55-1.49-.37-3.12-.88-4.89-1.55l-3.75-1.37c-.73-.3-1.52-.46-2.38-.46-1.1,0-1.86.26-2.29.78-.43.52-.79,1.57-1.1,3.15h-7.77ZM1951.51,344.33c0,1.52.27,2.94.82,4.25s1.29,2.45,2.24,3.43c.94.98,2.07,1.74,3.38,2.29s2.73.82,4.25.82,2.85-.27,4.16-.82c1.31-.55,2.44-1.31,3.38-2.29.94-.97,1.71-2.1,2.29-3.38.58-1.28.87-2.65.87-4.11s-.29-2.85-.87-4.16c-.58-1.31-1.34-2.45-2.29-3.43-.95-.97-2.07-1.74-3.38-2.29-1.31-.55-2.7-.82-4.16-.82s-2.94.27-4.25.82-2.44,1.31-3.38,2.29c-.95.98-1.69,2.09-2.24,3.34-.55,1.25-.82,2.61-.82,4.07Z"/>
    <path class="cls-2" d="M1998.41,344.06c0-3.47.7-6.72,2.1-9.74,1.4-3.02,3.35-5.64,5.85-7.86,2.5-2.22,5.47-3.98,8.91-5.26,3.44-1.28,7.21-1.92,11.29-1.92s7.75.63,11.2,1.87c3.44,1.25,6.43,2.99,8.96,5.21,2.53,2.23,4.49,4.88,5.9,7.95,1.4,3.08,2.1,6.48,2.1,10.19s-.72,7.12-2.15,10.19c-1.43,3.08-3.4,5.73-5.9,7.95-2.5,2.23-5.5,3.95-9.01,5.17-3.5,1.22-7.3,1.83-11.38,1.83s-7.74-.61-11.15-1.83c-3.41-1.22-6.35-2.96-8.82-5.21-2.47-2.25-4.4-4.95-5.81-8.09-1.4-3.14-2.1-6.63-2.1-10.47ZM2015.87,344.24c0,1.58.29,3.03.87,4.34.58,1.31,1.34,2.45,2.29,3.43.94.98,2.07,1.74,3.38,2.29,1.31.55,2.7.82,4.16.82s2.85-.27,4.16-.82c1.31-.55,2.44-1.31,3.38-2.29.94-.97,1.71-2.12,2.29-3.43.58-1.31.87-2.73.87-4.25s-.29-2.85-.87-4.16c-.58-1.31-1.34-2.45-2.29-3.43-.95-.97-2.07-1.74-3.38-2.29-1.31-.55-2.7-.82-4.16-.82s-2.85.27-4.16.82c-1.31.55-2.44,1.31-3.38,2.29-.95.98-1.71,2.1-2.29,3.38-.58,1.28-.87,2.65-.87,4.11Z"/>
  </g>
  <g>
    <path class="cls-2" d="M1506.34,209.85c-.67-1.68-1.68-3.25-3.36-4.7-2.35-1.9-4.81-2.69-8.06-2.69-6.94,0-10.52,4.14-10.52,8.95,0,2.24.78,6.16,8.06,9.07l7.5,3.02c13.77,5.6,17.57,13.43,17.57,21.94,0,14.21-10.07,23.95-24.06,23.95-8.62,0-13.77-3.25-17.57-7.5-4.03-4.48-5.82-9.4-6.27-14.55l11.3-2.46c0,3.69,1.34,7.16,3.13,9.51,2.13,2.69,5.26,4.48,9.74,4.48,6.94,0,12.31-5.04,12.31-12.54s-5.82-10.74-10.74-12.76l-7.16-3.02c-6.16-2.57-15.22-7.72-15.22-18.92,0-10.07,7.83-19.7,21.82-19.7,8.06,0,12.65,3.02,15,5.04,2.01,1.79,4.14,4.36,5.71,7.5l-9.18,5.37Z"/>
    <path class="cls-2" d="M1572.04,257.19c-2.01,3.58-4.92,6.72-7.95,8.62-3.81,2.46-8.84,3.58-13.88,3.58-6.27,0-11.42-1.57-15.89-6.04-4.48-4.48-6.94-10.97-6.94-18.02s2.57-14.33,7.5-19.36c3.92-3.92,9.07-6.38,15.78-6.38,7.5,0,12.31,3.25,15.11,6.16,6.04,6.27,6.6,15,6.6,19.92v1.34h-33.8c.22,3.36,1.68,7.16,4.03,9.51,2.57,2.57,5.71,3.02,8.39,3.02,3.02,0,5.26-.67,7.5-2.35,1.9-1.45,3.36-3.36,4.36-5.15l9.18,5.15ZM1561.18,238.05c-.45-2.57-1.68-4.81-3.36-6.38-1.46-1.34-3.81-2.69-7.39-2.69-3.81,0-6.27,1.57-7.72,3.02-1.57,1.45-2.8,3.69-3.36,6.04h21.83Z"/>
    <path class="cls-2" d="M1620.28,235.26c-5.04-4.92-9.96-5.82-13.32-5.82-5.15,0-8.39,2.13-10.41,4.14-2.01,2.01-4.03,5.6-4.03,10.86s2.13,9.18,4.25,11.3c2.46,2.35,5.93,3.81,9.96,3.81,4.48,0,9.74-1.79,13.54-6.04v12.2c-2.69,1.68-7.05,3.69-14.33,3.69-7.83,0-13.43-2.24-17.91-6.94-3.36-3.47-6.72-9.07-6.72-17.68s3.69-14.77,7.16-18.24c3.69-3.69,9.63-6.94,18.91-6.94,3.58,0,7.83.56,12.87,3.36v12.31Z"/>
    <path class="cls-2" d="M1630.8,220.82h10.97v4.25c1.23-1.45,3.02-3.02,4.59-3.92,2.13-1.23,4.25-1.57,6.72-1.57,2.69,0,5.6.45,8.62,2.24l-4.48,9.96c-2.46-1.57-4.48-1.68-5.6-1.68-2.35,0-4.7.34-6.83,2.57-3.02,3.25-3.02,7.72-3.02,10.86v24.4h-10.97v-47.12Z"/>
    <path class="cls-2" d="M1706.68,257.19c-2.01,3.58-4.92,6.72-7.95,8.62-3.81,2.46-8.84,3.58-13.88,3.58-6.27,0-11.42-1.57-15.89-6.04-4.48-4.48-6.94-10.97-6.94-18.02s2.57-14.33,7.5-19.36c3.92-3.92,9.07-6.38,15.78-6.38,7.5,0,12.31,3.25,15.11,6.16,6.04,6.27,6.6,15,6.6,19.92v1.34h-33.8c.22,3.36,1.68,7.16,4.03,9.51,2.57,2.57,5.71,3.02,8.39,3.02,3.02,0,5.26-.67,7.5-2.35,1.9-1.45,3.36-3.36,4.36-5.15l9.18,5.15ZM1695.83,238.05c-.45-2.57-1.68-4.81-3.36-6.38-1.45-1.34-3.81-2.69-7.39-2.69-3.81,0-6.27,1.57-7.72,3.02-1.57,1.45-2.8,3.69-3.36,6.04h21.83Z"/>
    <path class="cls-2" d="M1729.74,230.89v37.05h-10.97v-37.05h-4.59v-10.07h4.59v-17.24h10.97v17.24h8.39v10.07h-8.39Z"/>
    <path class="cls-2" d="M1779.99,220.82h10.97v47.12h-10.97v-4.92c-4.81,5.6-10.74,6.38-14.1,6.38-14.55,0-22.83-12.09-22.83-25.07,0-15.33,10.52-24.73,22.94-24.73,3.47,0,9.51.9,13.99,6.72v-5.48ZM1754.25,244.55c0,8.17,5.15,15,13.09,15,6.94,0,13.32-5.04,13.32-14.89s-6.38-15.22-13.32-15.22c-7.95,0-13.09,6.72-13.09,15.11Z"/>
    <path class="cls-2" d="M1804.84,220.82h10.97v4.25c1.23-1.45,3.02-3.02,4.59-3.92,2.13-1.23,4.25-1.57,6.72-1.57,2.69,0,5.6.45,8.62,2.24l-4.48,9.96c-2.46-1.57-4.48-1.68-5.6-1.68-2.35,0-4.7.34-6.83,2.57-3.02,3.25-3.02,7.72-3.02,10.86v24.4h-10.97v-47.12Z"/>
    <path class="cls-2" d="M1847.48,194.29c4.03,0,7.05,3.02,7.05,7.05s-3.02,7.05-7.05,7.05-7.05-3.02-7.05-7.05,3.02-7.05,7.05-7.05ZM1852.96,220.82v47.12h-10.97v-47.12h10.97Z"/>
    <path class="cls-2" d="M1901.31,220.82h10.97v47.12h-10.97v-4.92c-4.81,5.6-10.74,6.38-14.1,6.38-14.55,0-22.83-12.09-22.83-25.07,0-15.33,10.52-24.73,22.94-24.73,3.47,0,9.51.9,13.99,6.72v-5.48ZM1875.57,244.55c0,8.17,5.15,15,13.09,15,6.94,0,13.32-5.04,13.32-14.89s-6.38-15.22-13.32-15.22c-7.95,0-13.09,6.72-13.09,15.11Z"/>
    <path class="cls-2" d="M1986.71,186.34h10.97v81.59h-10.97v-4.92c-4.81,5.6-10.74,6.38-14.1,6.38-14.55,0-22.83-12.09-22.83-25.07,0-15.33,10.52-24.73,22.94-24.73,3.47,0,9.51.9,13.99,6.72v-39.96ZM1960.97,244.55c0,8.17,5.15,15,13.09,15,6.94,0,13.32-5.04,13.32-14.89s-6.38-15.22-13.32-15.22c-7.95,0-13.09,6.72-13.09,15.11Z"/>
    <path class="cls-2" d="M2053.75,257.19c-2.01,3.58-4.92,6.72-7.95,8.62-3.81,2.46-8.84,3.58-13.88,3.58-6.27,0-11.42-1.57-15.89-6.04-4.48-4.48-6.94-10.97-6.94-18.02s2.57-14.33,7.5-19.36c3.92-3.92,9.07-6.38,15.78-6.38,7.5,0,12.31,3.25,15.11,6.16,6.04,6.27,6.6,15,6.6,19.92v1.34h-33.8c.22,3.36,1.68,7.16,4.03,9.51,2.57,2.57,5.71,3.02,8.39,3.02,3.02,0,5.26-.67,7.5-2.35,1.9-1.45,3.36-3.36,4.36-5.15l9.18,5.15ZM2042.89,238.05c-.45-2.57-1.68-4.81-3.36-6.38-1.46-1.34-3.81-2.69-7.39-2.69-3.81,0-6.27,1.57-7.72,3.02-1.57,1.45-2.8,3.69-3.36,6.04h21.83Z"/>
  </g>
</svg>