<?xml version="1.0" encoding="UTF-8"?>
<svg id="Layer_1" data-name="Layer 1" xmlns="http://www.w3.org/2000/svg" viewBox="0 0 466.48 241.49">
  <defs>
    <style>
      .cls-1 {
        fill: #00b3f0;
      }

      .cls-1, .cls-2, .cls-3 {
        stroke-width: 0px;
      }

      .cls-1, .cls-3 {
        fill-rule: evenodd;
      }

      .cls-2, .cls-3 {
        fill: #fff;
      }
    </style>
  </defs>
  <g>
    <polygon class="cls-3" points="413.82 190.7 375.28 190.7 375.28 166.59 404.32 137.73 413.82 147.41 413.82 190.7"/>
    <polygon class="cls-1" points="375.28 46.21 413.82 46.21 413.82 137.73 399.39 123.3 375.28 147.41 375.28 46.21"/>
  </g>
  <g>
    <path class="cls-2" d="M114.96,155.06c-5.83,1.43-12.31,3.08-22.75,3.08-20.44,0-44.08-10.33-44.08-39.35,0-26.71,18.69-40.01,43.97-40.01,7.8,0,15.39,1.76,22.75,3.96l-1.65,16.6c-6.59-3.63-12.97-5.39-20-5.39-14.51,0-23.96,10.55-23.96,24.84,0,15.06,10.66,24.18,25.61,24.18,6.7,0,13.52-1.76,19.13-3.96l.99,16.05Z"/>
    <path class="cls-2" d="M126.8,80.09h27.92c26.71,0,45.4,8.35,45.4,38.03s-19.24,38.69-45.4,38.69h-27.92v-76.72ZM147.24,141.65h7.91c15.28,0,23.85-7.91,23.85-23.19s-8.9-23.19-23.85-23.19h-7.91v46.39Z"/>
    <path class="cls-2" d="M210.69,80.09h20.45v29.35h24.18v-29.35h20.45v76.72h-20.45v-32.87h-24.18v32.87h-20.45v-76.72Z"/>
    <path class="cls-2" d="M355.97,127.69c0,21-13.63,30.45-33.64,30.45s-33.64-9.45-33.64-30.45v-47.6h20.45v44.19c0,10.11,2.75,18.69,13.19,18.69s13.19-8.57,13.19-18.69v-44.19h20.45v47.6Z"/>
  </g>
</svg>